<svg width="328" height="80" viewBox="0 0 328 80" fill="none" xmlns="http://www.w3.org/2000/svg"><path fill-rule="evenodd" clip-rule="evenodd" d="M32.092 50.515c-.137 1.097-.412 2.057-.823 2.788a6.1 6.1 0 0 1-1.554 1.83c-.595.456-1.28.73-2.012.96a10 10 0 0 1-2.377.273c-.823 0-1.554-.045-2.24-.274-.686-.183-1.28-.457-1.829-.96a4.25 4.25 0 0 1-1.143-1.691c-.274-.686-.274-1.555-.182-2.515.045-.594.274-1.28.548-2.102a8.4 8.4 0 0 1 1.235-2.378l2.56.96c-.183.412-.32.732-.458 1.006-.137.274-.274.549-.32.823s-.137.548-.183.731c-.045.275-.137.549-.137.732-.045.548-.045 1.005.046 1.417.137.411.32.686.594.96.275.183.595.411.96.457.32.046.732.137 1.098.137.96 0 1.69-.274 2.24-.731.548-.457.868-1.28 1.005-2.377l1.874-14.766h3.018zm8.23.731c-.046.412-.137.732-.137.96-.046.183-.046.275-.137.275a13 13 0 0 1-1.966-.138c-.594-.045-1.143-.274-1.6-.548s-.823-.594-1.097-1.097a3.16 3.16 0 0 1-.183-1.646l1.691-13.029h3.017l-1.554 12.023c-.046.32-.046.686 0 .96.046.275.183.457.32.595s.32.182.549.274c.183.046.457.046.685.046.183 0 .32.137.32.32.183.274.183.502.092 1.005" fill="#020617"/><path fill-rule="evenodd" clip-rule="evenodd" d="M47.818 44.846c-.411 0-.731.138-1.097.32-.32.183-.594.458-.823.869-.274.32-.457.731-.594 1.234a7 7 0 0 0-.412 1.555c.412.41.732.685 1.098.868q.48.274 1.234.274c.594 0 1.143-.183 1.554-.685.412-.412.686-1.006.732-1.692.137-.868 0-1.554-.275-2.057-.274-.411-.731-.686-1.417-.686m-7.77 7.635c-.32 0-.596-.046-.824-.275-.183-.183-.183-.457-.183-.868.046-.412.137-.732.32-.96.137-.183.32-.32.594-.32h.595c.274 0 .548-.046.685-.137.183-.138.32-.275.457-.412.138-.183.183-.411.275-.594.045-.274.183-.549.274-.869.137-.822.411-1.554.731-2.24a5.6 5.6 0 0 1 1.28-1.782c.458-.458 1.098-.87 1.692-1.143a5.6 5.6 0 0 1 2.103-.412c.823 0 1.554.137 2.148.412s1.143.594 1.463 1.097a3.5 3.5 0 0 1 .823 1.645c.137.595.137 1.28.046 2.058-.046.274-.046.548-.137.823-.046.274-.138.457-.183.731.137.274.411.548.731.686.32.182.732.274 1.143.274.183 0 .32.137.32.32.046.183.046.548 0 .96-.046.274-.046.457-.046.686 0 .137-.045.274-.045.411 0 .046-.046.137-.046.137s0 .046-.046.046c-.274 0-.457 0-.823-.046-.274-.046-.548-.137-.868-.183a7 7 0 0 1-.823-.457c-.274-.183-.457-.457-.686-.731a6.6 6.6 0 0 1-1.874 1.234c-.686.274-1.372.32-2.103.32-.686 0-1.28-.046-1.829-.274-.548-.183-1.097-.549-1.6-1.006-.411.457-.868.731-1.28.96-.411.137-.96.274-1.691.274h-.594z" fill="#020617"/><path fill-rule="evenodd" clip-rule="evenodd" d="M54.174 52.48c-.412 0-.686-.045-.823-.274-.137-.183-.183-.457-.183-.868.046-.412.137-.732.32-.96.137-.183.32-.32.594-.32h2.012c-.183-.412-.32-.823-.457-1.28-.046-.412-.138-.869-.046-1.28.137-.823.32-1.555.731-2.24a5.2 5.2 0 0 1 1.417-1.555c.549-.411 1.235-.731 1.875-.96.685-.183 1.417-.32 2.148-.32.549 0 1.143.046 1.692.137a4.7 4.7 0 0 1 1.417.32l-.823 2.378a7 7 0 0 0-.96-.183c-.412-.046-.869-.046-1.28-.046-.32 0-.594.046-1.006.137a2 2 0 0 0-.96.412c-.32.182-.548.457-.823.731-.182.32-.411.732-.411 1.234-.137.823.046 1.418.549 1.92.457.457 1.142.686 2.102.686h3.018l-.32 2.514h-9.829v-.182zm16.502-16.685a3.2 3.2 0 0 1-.183-1.098c.046-.685.411-1.234.868-1.645s1.143-.594 1.875-.594c.182 0 .411 0 .594.045.183 0 .457.046.686.137l-.458 1.235c-.274-.138-.594-.138-.96-.138-.41 0-.73.046-.96.275a1.6 1.6 0 0 0-.41.731c-.092.32.045.594.273.823.183.183.549.274.96.274h1.372l-.137 1.28H69.67l.137-1.28h.869zm-.412 2.697h3.017L71.91 48.869h-3.017zm6.903 12.48c-.411.548-.96.868-1.554 1.143a7.8 7.8 0 0 1-2.24.32h-7.086l.32-2.515h5.806c.868 0 1.554-.183 1.966-.594s.685-1.097.822-2.103l1.418-11.245h3.017l-1.463 11.794c-.046.686.046 1.143.457 1.554s.96.594 1.737.594c.183 0 .411.046.457.275.046.182.046.457.046.96-.046.548-.137.868-.183 1.005-.046.138-.137.275-.183.275-.274 0-.594 0-.96-.046a3 3 0 0 1-.96-.274c-.274-.138-.548-.275-.823-.458-.182-.137-.411-.41-.594-.685" fill="#020617"/><path fill-rule="evenodd" clip-rule="evenodd" d="M80.412 49.966c.457 0 .868-.046 1.143-.137.32-.046.548-.183.731-.412a2.3 2.3 0 0 0 .412-.594c.045-.274.137-.548.183-.868l1.462-11.886h3.017l-1.554 12.434c-.046.686-.274 1.28-.457 1.783-.183.457-.549.869-.96 1.234a4 4 0 0 1-1.6.732c-.686.137-1.417.274-2.377.274-.32 0-.594-.046-.823-.274-.183-.183-.183-.457-.183-.869.046-.411.137-.731.32-.96.275-.32.457-.457.686-.457m20.023 8.092c.046-.457.274-.823.594-1.143a1.86 1.86 0 0 1 1.235-.457c.457 0 .823.137 1.097.457.274.274.32.686.274 1.143a1.75 1.75 0 0 1-.594 1.143c-.32.274-.732.457-1.143.457-.457 0-.823-.137-1.097-.457-.32-.32-.457-.64-.366-1.143m-3.931 0c.045-.457.274-.823.594-1.143.32-.274.731-.457 1.234-.457.457 0 .823.137 1.097.457.275.274.32.686.275 1.143a1.75 1.75 0 0 1-.595 1.143c-.32.274-.731.457-1.142.457-.458 0-.823-.137-1.098-.457-.274-.32-.411-.64-.365-1.143m.365-9.052c-.137 1.006.183 1.829.96 2.332.732.548 1.875.731 3.52.731.732 0 1.418-.046 2.012-.137s1.097-.183 1.554-.32c.412-.137.732-.32 1.006-.549.183-.182.32-.41.411-.548 0-.274-.137-.549-.548-.869s-1.006-.685-1.829-1.142c-.868-.458-1.554-1.006-1.966-1.555s-.548-1.28-.457-2.103c.046-.548.275-1.097.549-1.645a6.3 6.3 0 0 1 1.143-1.372c.457-.411 1.097-.685 1.737-.868a9 9 0 0 1 2.286-.32h.594c.183 0 .457.045.731.045.275.046.457.046.732.138.183.045.411.137.594.182l-.823 2.24c-.183-.045-.457-.137-.823-.183-.32-.045-.731-.045-1.097-.045-.274 0-.548 0-.823.045a3.2 3.2 0 0 0-.868.275c-.275.137-.549.274-.686.457-.183.183-.274.457-.32.731 0 .183 0 .412.137.595.137.182.274.411.457.594s.457.411.732.548c.274.183.548.32.868.458.412.183.732.457 1.097.685.32.183.595.458.869.732.183.274.411.548.549.868.137.32.137.686.137 1.097-.046.686-.32 1.235-.732 1.783-.411.549-.96 1.006-1.6 1.372-.685.411-1.554.685-2.514.868s-2.103.32-3.291.32c-1.28 0-2.378-.045-3.292-.274-.96-.183-1.737-.548-2.423-.96-.686-.457-1.097-1.006-1.417-1.691-.274-.686-.32-1.555-.183-2.515.046-.548.274-1.142.549-1.965.274-.732.686-1.555 1.234-2.377l2.56 1.005c-.274.549-.548 1.097-.823 1.692-.32.685-.503 1.143-.503 1.645m18.058.96c.731 0 1.28-.137 1.6-.457.411-.274.594-.823.731-1.646l.046-.548c.046-.732-.046-1.372-.549-1.692-.457-.411-1.142-.594-2.102-.594h-2.103l.32-2.514h2.697c.96 0 1.691.137 2.377.32.686.182 1.143.548 1.554.868.412.412.686.823.823 1.372.137.548.183 1.097.137 1.691l-.183 1.509c-.182 1.508-.594 2.605-1.28 3.2-.685.685-1.737 1.005-3.154 1.005h-5.486l.32-2.514zm10.788-2.56c-.137.823 0 1.508.32 1.92s.868.594 1.691.594h1.737l.32-2.605c.046-.32.046-.686 0-.96 0-.275-.137-.55-.182-.823a1.08 1.08 0 0 0-.549-.549c-.183-.137-.549-.183-.823-.183q-.41 0-.823.137c-.274.046-.548.275-.731.458a3.2 3.2 0 0 0-.594.822c-.229.366-.366.732-.366 1.189m.411 6.491c.457 0 .823 0 1.235-.045.32-.046.685-.137.868-.183.274-.137.457-.274.594-.457.138-.183.183-.458.275-.732h-2.103c-.732 0-1.417-.045-1.966-.274-.594-.183-1.097-.457-1.463-.823-.411-.411-.685-.869-.868-1.509-.183-.594-.183-1.28-.137-2.102.045-.686.274-1.372.594-2.057.274-.686.686-1.235 1.234-1.783.549-.549 1.143-.869 1.829-1.235a6.3 6.3 0 0 1 2.377-.457c.686 0 1.28.137 1.828.32.549.183 1.098.549 1.463.869.412.411.686.868.869 1.508.183.595.183 1.28.137 2.103l-.32 2.789h1.6c.183 0 .32.045.411.274.046.183.046.549.046.96a7 7 0 0 1-.183 1.006c-.045.137-.137.183-.183.183h-2.011a6 6 0 0 1-.823 1.828c-.32.457-.823.869-1.371 1.235a5.8 5.8 0 0 1-1.829.685c-.686.137-1.417.183-2.24.183-.457 0-.96 0-1.417-.046a6.6 6.6 0 0 1-1.371-.274l.731-2.377c.32.046.686.137 1.097.183.274.228.686.228 1.097.228" fill="#020617"/><path fill-rule="evenodd" clip-rule="evenodd" d="M140.757 44.846c-.275 0-.549 0-.823.046-.275.046-.549.046-.732.137-.274.046-.457.137-.685.183-.183.046-.32.137-.412.183.549.457 1.097 1.005 1.417 1.554.412.549.732 1.006 1.006 1.554.183-.137.457-.274.731-.457.275-.183.458-.411.686-.594.183-.183.412-.412.457-.686.137-.183.183-.457.275-.731 0-.137 0-.275-.046-.412a.85.85 0 0 0-.32-.411c-.137-.137-.32-.183-.594-.274-.275-.092-.549-.092-.96-.092m-6.583 7.634c-.412 0-.686-.137-.823-.32-.137-.182-.183-.457-.183-.868.046-.412.137-.732.32-.96.137-.183.32-.32.594-.32h2.377c.412 0 .823 0 1.143-.046s.595-.137.823-.183c-.32-.32-.594-.685-.823-.96-.274-.274-.457-.548-.731-.731a11 11 0 0 0-.732-.686c-.274-.183-.594-.457-1.005-.686 0-.137.045-.32.137-.594.046-.274.137-.548.183-.823s.137-.548.274-.731c.046-.183.137-.412.183-.549.274-.137.594-.32 1.006-.457.411-.137.822-.32 1.28-.457.457-.137.96-.274 1.417-.32s.96-.137 1.417-.137c.731 0 1.371.046 1.966.183.594.137 1.142.32 1.554.685a2.95 2.95 0 0 1 1.006 1.098c.182.411.274.96.182 1.508-.045.412-.182.732-.32 1.143-.182.411-.457.731-.731 1.097-.274.32-.686.686-1.006 1.006a7.6 7.6 0 0 1-1.28.823c.183.045.412.045.732.137h3.063c.182 0 .32.046.411.274.046.183.046.549.046.96-.046.549-.137.869-.183 1.006s-.137.183-.183.183h-3.109c-.822 0-1.417-.046-2.011-.275-.549-.137-1.006-.32-1.28-.594-.549.274-1.234.457-1.874.594-.686.138-1.417.275-2.103.275h-1.692v-.275z" fill="#020617"/><path fill-rule="evenodd" clip-rule="evenodd" d="M153.646 52.48a5.5 5.5 0 0 1-1.874-.32c-.549-.274-.869-.594-1.098-1.005-.411.457-.96.822-1.691 1.005s-1.6.32-2.743.32c-.32 0-.594-.045-.823-.274-.183-.183-.183-.457-.183-.869.046-.41.138-.73.32-.96.183-.182.32-.32.595-.32.823 0 1.417-.137 1.828-.41.412-.275.595-.824.732-1.647l.457-3.474h3.017l-.457 3.749c0 .274-.046.457 0 .685 0 .183.046.412.183.549.045.137.274.274.457.411.183.046.457.137.823.137.548 0 .868-.137 1.143-.41.274-.275.457-.824.548-1.692l.457-3.475h3.017l-.457 3.749c0 .274-.045.457 0 .686 0 .182.046.411.137.548.046.137.275.274.458.412.182.045.457.137.822.137.549 0 .96-.137 1.143-.412.275-.274.412-.822.549-1.645l.686-5.44h3.017l-.686 5.348c-.046.595.046 1.143.457 1.554s.96.595 1.737.595c.183 0 .412.045.457.274.046.183.046.457.046.96-.046.549-.137.869-.183 1.006s-.137.274-.183.274c-.274 0-.594 0-.868-.046-.32-.045-.594-.137-.96-.182a5.3 5.3 0 0 1-.869-.458 1.7 1.7 0 0 1-.594-.685c-.411.457-.823.822-1.371 1.097a5.7 5.7 0 0 1-1.829.32 5.5 5.5 0 0 1-1.874-.32c-.457-.275-.869-.595-1.006-1.006-.914.731-1.966 1.234-3.337 1.234" fill="#020617"/><path fill-rule="evenodd" clip-rule="evenodd" d="M166.219 49.966c.457 0 .868-.046 1.142-.137a1.08 1.08 0 0 0 .732-.412 2.3 2.3 0 0 0 .411-.594c.046-.274.137-.548.183-.868l1.463-11.886h3.017l-1.554 12.434c-.046.686-.274 1.28-.457 1.783-.183.457-.549.869-.96 1.234-.412.32-.96.595-1.6.732-.686.137-1.417.274-2.377.274-.32 0-.686-.046-.823-.274-.183-.183-.183-.457-.183-.869.046-.411.137-.731.32-.96.183-.32.411-.457.686-.457m13.028-13.943-2.103 16.458h-3.017l2.103-16.458zm9.418 2.652c.045-.457.274-.823.594-1.143.32-.274.731-.457 1.234-.457s.823.137 1.097.457c.275.274.32.686.275 1.143a1.75 1.75 0 0 1-.595 1.143c-.32.274-.731.457-1.143.457-.457 0-.822-.137-1.097-.457a1.5 1.5 0 0 1-.365-1.143m-3.109 17.691c-.457 0-.869 0-1.234-.046-.366-.045-.686-.137-.869-.182l.686-2.378c.183 0 .32.046.457.046s.32.046.457.046c.549 0 1.006-.137 1.28-.457s.457-.869.549-1.555l1.143-9.28h3.017l-.96 7.498h1.874c.183 0 .32.045.457.274.046.183.046.548.046.96a5 5 0 0 1-.183.96c-.046.137-.137.274-.183.274h-2.24c-.137.823-.32 1.417-.594 1.966a5.2 5.2 0 0 1-1.006 1.234 4.6 4.6 0 0 1-1.28.594c-.457-.045-.914.046-1.417.046" fill="#020617"/><path fill-rule="evenodd" clip-rule="evenodd" d="M192.184 52.48c-.32 0-.594-.045-.823-.274-.183-.183-.274-.457-.183-.869.046-.411.138-.73.32-.96.138-.182.32-.32.595-.32h6.491c.732 0 1.372-.137 1.692-.457s.594-.868.685-1.554l.046-.594c.183-1.554-.594-2.332-2.423-2.332h-4.8l.32-2.514 6.812-6.4 1.828 1.92-4.846 4.526h1.738c.868 0 1.6.137 2.24.32a3.6 3.6 0 0 1 1.417.868c.32.412.594.823.731 1.372.137.548.137 1.097.046 1.691l-.183 1.509c-.183 1.508-.594 2.605-1.371 3.291-.732.686-1.738.96-3.155.96h-7.223v-.183zm13.577 3.886c-.457 0-.869 0-1.234-.045-.366-.046-.686-.138-.869-.183l.686-2.377c.183 0 .32.045.457.045s.32.046.457.046c.549 0 1.006-.137 1.28-.457s.457-.869.549-1.554l1.234-9.28h3.017l-.96 7.497h1.874c.183 0 .32.045.412.274.046.183.046.549.046.96a5 5 0 0 1-.183.96c-.046.137-.137.274-.183.274h-2.24c-.137.823-.32 1.417-.594 1.966a5.2 5.2 0 0 1-1.006 1.234 4.7 4.7 0 0 1-1.28.595c-.549-.046-1.006.045-1.463.045" fill="#020617"/><path fill-rule="evenodd" clip-rule="evenodd" d="M220.115 44.846c-.411 0-.731.138-1.097.32-.32.183-.594.458-.823.869-.274.32-.457.731-.594 1.234a7 7 0 0 0-.412 1.555c.412.41.732.685 1.097.868q.48.274 1.235.274c.594 0 1.143-.183 1.554-.685.411-.412.686-1.006.731-1.692.138-.868 0-1.554-.274-2.057-.274-.411-.731-.686-1.417-.686m-7.771 7.635c-.32 0-.686-.046-.823-.275-.183-.183-.183-.457-.183-.868.046-.412.137-.732.32-.96.137-.183.32-.32.594-.32h.594c.275 0 .549-.046.686-.137.183-.138.32-.275.457-.412.137-.183.183-.411.275-.594.045-.274.182-.549.274-.869.137-.822.411-1.554.731-2.24.32-.685.732-1.28 1.28-1.782.457-.458 1.097-.87 1.692-1.143a5.6 5.6 0 0 1 2.103-.412c.822 0 1.554.137 2.148.412s1.143.594 1.463 1.097q.617.685.823 1.645c.137.595.137 1.28.046 2.058-.046.274-.046.548-.138.823-.045.274-.137.457-.182.731.137.274.411.548.731.686.32.182.731.274 1.143.274.183 0 .32.137.32.32.046.183.046.548 0 .96-.046.274-.046.457-.046.686 0 .137-.046.274-.046.411a.5.5 0 0 1-.045.137s0 .046-.046.046c-.274 0-.457 0-.823-.046-.274-.046-.548-.137-.868-.183a7 7 0 0 1-.823-.457c-.275-.183-.457-.457-.686-.731a6.6 6.6 0 0 1-1.874 1.234c-.686.274-1.372.32-2.103.32-.686 0-1.28-.046-1.829-.274-.548-.183-1.097-.549-1.6-1.006-.411.457-.868.731-1.28.96-.411.137-.96.274-1.691.274h-.594z" fill="#020617"/><path fill-rule="evenodd" clip-rule="evenodd" d="M226.379 49.966c.457 0 .823-.046 1.143-.137.32-.046.548-.183.731-.412a2.3 2.3 0 0 0 .411-.594c.046-.274.138-.548.183-.868l1.463-11.886h3.017l-1.554 12.434c-.046.686-.274 1.28-.457 1.783-.183.457-.549.869-.96 1.234-.412.32-.96.595-1.6.732-.686.137-1.417.274-2.377.274-.32 0-.686-.046-.823-.274-.183-.183-.183-.457-.183-.869.046-.411.137-.731.32-.96.274-.32.503-.457.686-.457m13.028-13.943-2.103 16.458h-3.017l2.103-16.458zM10.928 66.194c-.549-.182-1.098-.32-1.6-.457-.549-.045-1.143-.137-1.692-.137-.32 0-.686 0-.96.046-.32.046-.594.137-.868.274a1.4 1.4 0 0 0-.595.549c-.183.183-.274.457-.32.823-.045.274 0 .548.046.731s.274.411.457.594.457.412.869.549c.32.183.731.411 1.28.594.594.274 1.143.549 1.691.823.457.274.96.594 1.28 1.006.32.411.595.823.732 1.28s.183 1.097.045 1.783a4 4 0 0 1-.731 2.102c-.412.595-.869 1.098-1.463 1.509s-1.28.686-1.966.869a9 9 0 0 1-2.24.274c-.731 0-1.463-.046-2.285-.183s-1.6-.32-2.378-.594l.96-2.652c.686.275 1.418.549 2.103.686a10 10 0 0 0 1.875.183c.868 0 1.554-.137 2.102-.457.458-.275.823-.732.869-1.372.046-.274 0-.548-.046-.823-.045-.182-.274-.457-.457-.685-.183-.183-.548-.412-.868-.595-.32-.182-.823-.411-1.28-.594a17 17 0 0 1-1.6-.823 5.2 5.2 0 0 1-1.235-1.005c-.32-.412-.594-.823-.731-1.28a3.3 3.3 0 0 1-.046-1.646c.137-.823.32-1.509.732-2.103.411-.594.868-1.097 1.462-1.417a14 14 0 0 1 1.875-.823c.685-.137 1.371-.274 2.011-.274.732 0 1.463.045 2.24.137.686.046 1.372.274 1.874.411zm9.234 7.635c-.549 0-1.006 0-1.463.046a5.8 5.8 0 0 0-1.28.274c-.411.137-.686.32-.96.594-.183.274-.411.549-.411.96-.046.457.045.869.32 1.143q.41.411 1.234.411a3.7 3.7 0 0 0 1.234-.183c.32-.137.686-.32.869-.594a2.7 2.7 0 0 0 .594-.868c.137-.32.183-.595.274-.96l.137-.823zm.731-2.24c.046-.594-.045-1.097-.457-1.417-.411-.32-1.006-.549-1.874-.549-.412 0-.869.046-1.417.137-.549.092-1.097.274-1.692.457l-.274-2.24c.549-.182 1.143-.32 1.874-.457a11 11 0 0 1 2.012-.183c1.874 0 3.246.412 4.068 1.143.823.823 1.098 1.92.869 3.337l-.594 4.938c-.046.411-.046.868-.138 1.371-.045.457-.045.96 0 1.28h-2.834c-.046-.183-.046-.412-.046-.732v-.73h-.045c-.32.548-.869.96-1.463 1.233-.594.32-1.372.458-2.103.458-.549 0-1.006-.046-1.463-.183-.457-.138-.96-.32-1.28-.595a2.07 2.07 0 0 1-.823-1.142c-.182-.458-.182-1.006-.137-1.692.137-.823.412-1.554.823-2.103a4.03 4.03 0 0 1 1.737-1.234c.732-.274 1.555-.457 2.515-.594s1.874-.137 2.834-.137v-.366zm13.029 7.726.183-1.554h-.046c-.411.594-.869 1.005-1.6 1.371a5.05 5.05 0 0 1-2.149.457 4.7 4.7 0 0 1-1.737-.32c-.548-.183-.96-.457-1.28-.868-.32-.32-.548-.823-.685-1.372-.138-.548-.138-1.097-.046-1.783l1.005-7.771h3.155l-.823 6.629c-.046.457-.046.868-.046 1.28 0 .32.046.685.183.96s.32.457.594.594c.275.137.595.183 1.006.183.32 0 .594-.046.96-.183.32-.137.594-.275.869-.549.274-.274.457-.594.685-1.005.183-.412.32-.96.412-1.555l.823-6.4h3.154l-1.463 11.795h-3.108v.09zm9.507-5.943c-.046.548-.046 1.005-.046 1.508.046.457.137.869.32 1.235a2.5 2.5 0 0 0 .732.822c.32.183.685.275 1.143.275s.868-.046 1.28-.275c.411-.228.731-.457 1.005-.822a4 4 0 0 0 .732-1.235q.274-.686.411-1.508a8.3 8.3 0 0 0 0-1.509 2.8 2.8 0 0 0-.411-1.234 1.6 1.6 0 0 0-.823-.732c-.32-.137-.732-.274-1.143-.274-.457 0-.869.046-1.234.274-.412.183-.686.458-.96.823-.275.32-.457.732-.595 1.235a3.4 3.4 0 0 0-.411 1.417m6.766-10.515h3.154l-2.103 16.458h-3.108l.182-1.509h-.045c-.549.594-1.143 1.097-1.829 1.371a5.5 5.5 0 0 1-2.011.412c-.823 0-1.463-.137-2.103-.457-.594-.32-1.006-.732-1.372-1.28a5.3 5.3 0 0 1-.685-1.966 6.9 6.9 0 0 1 0-2.377c.137-.869.32-1.692.685-2.469.32-.731.732-1.417 1.235-1.965.457-.549 1.097-.96 1.737-1.28.686-.32 1.417-.458 2.24-.458.686 0 1.28.138 1.874.32.594.275 1.006.686 1.417 1.235h.046zm9.373.046-.32 2.743h-3.155l.32-2.743zm-.64 4.526-1.463 11.794H54.31l1.463-11.794zm11.976 2.377h2.286c.868 0 1.554-.137 2.102-.457.458-.32.823-.823.869-1.554.046-.412 0-.686-.046-.96a1.4 1.4 0 0 0-.457-.549c-.183-.137-.457-.183-.731-.274-.275-.046-.595-.046-.96-.046h-2.423zm-.914 6.857h2.651c.411 0 .823 0 1.143-.045.32-.046.685-.137.96-.32.274-.138.457-.32.686-.686.137-.274.274-.594.32-1.006.045-.411 0-.731-.138-1.005-.137-.275-.32-.458-.548-.686-.274-.137-.549-.275-.96-.32-.412-.046-.823-.046-1.28-.046h-2.24zM68.527 63.27h6.628c.686 0 1.372.046 1.874.183.55.137 1.098.411 1.418.686.411.32.685.731.868 1.234.183.457.183 1.097.137 1.829-.137 1.005-.457 1.828-1.005 2.377-.549.548-1.235.96-1.966 1.234v.046c.411.137.731.274 1.097.457.32.183.594.411.823.731.183.274.411.686.457 1.097.046.412.137.96.046 1.509-.046.594-.275 1.143-.549 1.691-.274.549-.594 1.006-1.097 1.417-.457.412-1.097.732-1.691.96a8.8 8.8 0 0 1-2.377.32h-6.766zm20.158 16.045.183-1.554h-.045c-.412.594-.869 1.005-1.6 1.371a5.05 5.05 0 0 1-2.149.457 4.7 4.7 0 0 1-1.737-.32c-.549-.183-.96-.457-1.28-.868-.32-.32-.549-.823-.686-1.372-.137-.548-.137-1.097-.046-1.783l1.006-7.771h3.154l-.822 6.629c-.046.457-.046.868-.046 1.28 0 .32.046.685.183.96s.32.457.594.594.594.183 1.006.183c.32 0 .594-.046.96-.183a2.2 2.2 0 0 0 .868-.549c.275-.274.457-.594.686-1.005.183-.412.32-.96.411-1.555l.823-6.4h3.155L91.84 79.224h-3.155zm14.448-9.097c-.594-.183-1.142-.412-1.6-.458-.548-.045-1.005-.137-1.462-.137s-.823.046-1.143.183c-.275.137-.457.412-.549.732a.85.85 0 0 0 .32.823c.275.182.823.457 1.6.685.594.183 1.143.412 1.554.594a2.9 2.9 0 0 1 1.143.823c.275.275.549.686.595 1.006.137.412.137.823.045 1.372-.045.685-.274 1.234-.685 1.69-.32.458-.732.824-1.28 1.098-.458.274-1.006.457-1.6.594a8 8 0 0 1-1.737.183c-.732 0-1.463-.046-2.24-.183-.732-.137-1.418-.32-2.012-.594l.96-2.377c.594.274 1.28.457 1.874.594a8.6 8.6 0 0 0 1.692.183c.594 0 1.097-.046 1.417-.183s.548-.411.594-.823c.046-.32-.046-.594-.411-.868-.32-.183-.96-.457-1.829-.732-1.234-.411-2.011-.868-2.56-1.508-.457-.549-.686-1.28-.594-2.103.046-.594.274-1.143.594-1.646.32-.457.686-.823 1.143-1.143.457-.274 1.006-.548 1.554-.685a7 7 0 0 1 1.692-.183c.594 0 1.28.046 1.965.137.686.137 1.28.274 1.829.457zm7.817-7.315-.32 2.743h-3.2l.32-2.743zm-.595 4.526-1.462 11.794h-3.155l1.463-11.794zm6.218.001-.183 1.553h.046c.411-.594.868-1.005 1.6-1.371a5.05 5.05 0 0 1 2.148-.457c.686 0 1.28.046 1.738.274.457.183.96.457 1.28.869.32.411.548.823.685 1.371.137.549.137 1.097.046 1.783l-1.006 7.771h-3.154l.823-6.628c.046-.457.046-.869.046-1.28s-.046-.732-.183-.96a1.25 1.25 0 0 0-.595-.595c-.274-.137-.594-.182-1.005-.182-.32 0-.595.045-.96.137-.275.137-.595.274-.869.548-.274.275-.548.595-.731 1.006s-.32.96-.412 1.509l-.823 6.4h-3.154l1.463-11.795h3.154v.046zm15.909 1.92c-.732 0-1.372.274-1.966.73-.549.458-.96 1.144-1.143 1.966h5.074c.137-.823 0-1.508-.411-1.965-.274-.457-.823-.732-1.554-.732m-3.292 4.982c0 .549.046.96.274 1.372.138.32.412.594.732.868.32.183.686.412 1.143.457.411.137.868.137 1.417.137.457 0 .96 0 1.417-.045.457-.046.96-.183 1.417-.32l.046 2.331c-.549.137-1.097.274-1.692.32-.594.046-1.234.137-1.874.137-1.097 0-1.966-.137-2.743-.457a4.04 4.04 0 0 1-1.874-1.28c-.457-.549-.823-1.143-1.006-1.966a6.4 6.4 0 0 1-.137-2.514c.137-.868.32-1.691.732-2.469a6 6 0 0 1 1.417-1.965c.548-.549 1.234-.96 2.011-1.28a7.2 7.2 0 0 1 2.514-.457c.869 0 1.6.137 2.24.411.595.274 1.143.686 1.463 1.143.412.457.595 1.097.732 1.829.137.731.137 1.508 0 2.377l-.137 1.28h-8.092zm18.149-4.113c-.595-.183-1.143-.412-1.6-.458-.549-.045-1.006-.137-1.463-.137s-.823.046-1.143.183c-.274.137-.457.412-.549.732a.85.85 0 0 0 .32.823c.275.182.823.457 1.6.685.595.183 1.143.412 1.555.594.457.183.822.458 1.142.823.275.275.549.686.595 1.006.137.412.137.823.045 1.372-.045.685-.274 1.234-.685 1.69-.32.458-.732.824-1.28 1.098-.457.274-1.006.457-1.6.594a8 8 0 0 1-1.737.183c-.732 0-1.463-.046-2.24-.183-.732-.137-1.418-.32-2.012-.594l.96-2.377c.594.274 1.28.457 1.874.594a8.6 8.6 0 0 0 1.692.183c.594 0 1.097-.046 1.417-.183s.549-.411.594-.823c.046-.32-.045-.594-.411-.868-.32-.183-.96-.457-1.829-.732-1.234-.411-2.011-.868-2.56-1.508-.457-.549-.685-1.28-.594-2.103.046-.594.274-1.143.594-1.646a4.5 4.5 0 0 1 1.143-1.143c.457-.274 1.006-.548 1.554-.685a7 7 0 0 1 1.692-.183c.594 0 1.28.046 1.966.137.685.137 1.28.274 1.828.457zm10.558 0c-.594-.183-1.143-.412-1.6-.458-.548-.045-1.006-.137-1.463-.137s-.823.046-1.143.183c-.274.137-.457.412-.548.732a.85.85 0 0 0 .32.823c.274.182.823.457 1.6.685.594.183 1.143.412 1.554.594.457.183.823.458 1.143.823.274.275.549.686.594 1.006.137.412.137.823.046 1.372-.046.685-.274 1.234-.686 1.69-.32.458-.731.824-1.28 1.098-.457.274-1.005.457-1.6.594a8 8 0 0 1-1.737.183 12.7 12.7 0 0 1-2.24-.183c-.731-.137-1.417-.32-2.011-.594l.96-2.377c.594.274 1.28.457 1.874.594a8.6 8.6 0 0 0 1.691.183c.595 0 1.098-.046 1.418-.183s.548-.411.594-.823c.046-.32-.046-.594-.412-.868-.32-.183-.96-.457-1.828-.732-1.234-.411-2.012-.868-2.56-1.508-.457-.549-.686-1.28-.594-2.103.045-.594.274-1.143.594-1.646a4.5 4.5 0 0 1 1.143-1.143c.457-.274 1.005-.548 1.554-.685s1.143-.183 1.691-.183c.595 0 1.28.046 1.966.137.686.137 1.28.274 1.829.457zm20.711-4.023a26 26 0 0 0-1.372-.412c-.502-.137-.96-.137-1.417-.137-.823 0-1.6.137-2.285.457a4.3 4.3 0 0 0-1.738 1.235c-.457.457-.868 1.097-1.142 1.828-.275.686-.458 1.417-.595 2.195-.045.73-.045 1.417.046 2.102.137.686.32 1.28.731 1.783.32.549.823.96 1.418 1.235.594.274 1.28.457 2.148.457.594 0 1.143-.046 1.6-.138.457-.137.96-.274 1.417-.457l.183 2.515c-.594.274-1.234.411-1.874.548-.686.137-1.372.137-2.103.137-1.234 0-2.24-.183-3.154-.594-.96-.411-1.692-.96-2.286-1.691s-1.006-1.555-1.28-2.606c-.274-1.006-.274-2.103-.137-3.337s.457-2.332.96-3.337c.457-1.006 1.143-1.92 1.874-2.652a8.9 8.9 0 0 1 2.743-1.691c1.097-.412 2.24-.594 3.429-.594.685 0 1.371.045 1.965.137a18 18 0 0 1 1.692.457zm7.496 3.155c-.731 0-1.371.274-1.965.73-.549.458-.96 1.144-1.143 1.966h5.074c.137-.823 0-1.508-.411-1.965-.275-.457-.823-.732-1.555-.732m-3.383 4.982c0 .549.046.96.275 1.372.137.32.411.594.731.868.32.183.686.412 1.143.457.411.137.869.137 1.417.137.457 0 .96 0 1.417-.045.457-.046.96-.183 1.417-.32l.046 2.331c-.548.137-1.097.274-1.691.32s-1.235.137-1.875.137c-1.097 0-1.965-.137-2.742-.457a4.04 4.04 0 0 1-1.875-1.28c-.457-.549-.823-1.143-1.005-1.966a6.4 6.4 0 0 1-.138-2.514c.138-.868.32-1.691.732-2.469a6 6 0 0 1 1.417-1.965c.549-.549 1.234-.96 2.011-1.28a7.2 7.2 0 0 1 2.515-.457c.868 0 1.6.137 2.24.411.594.274 1.143.686 1.463 1.143.411.457.594 1.097.731 1.829.137.731.137 1.508 0 2.377l-.137 1.28h-8.092zm14.446-6.901-.183 1.553h.046c.411-.594.868-1.005 1.6-1.371a5 5 0 0 1 2.148-.457c.686 0 1.28.046 1.737.274.457.183.96.457 1.28.869.32.411.549.823.686 1.371.137.549.137 1.097.046 1.783l-1.006 7.771h-3.154l.823-6.628c.045-.457.045-.869.045-1.28s-.045-.732-.183-.96a1.25 1.25 0 0 0-.594-.595c-.274-.137-.594-.182-1.006-.182-.32 0-.594.045-.96.137-.274.137-.594.274-.868.548-.274.275-.549.595-.731 1.006-.183.411-.321.96-.412 1.509l-.823 6.4h-3.154l1.463-11.795h3.154v.046zm9.599-.001h1.829l.411-3.155h3.155l-.412 3.155h2.423l-.32 2.377h-2.423l-.685 5.257c-.046.411-.046.731-.046.96 0 .274.046.411.137.549.046.137.183.182.32.274.137.046.411.046.686.046h.548c.137 0 .32-.046.549-.046l-.274 2.377c-.275 0-.595.046-1.006.046h-1.097c-.732 0-1.372-.046-1.737-.183-.412-.137-.732-.32-.96-.686-.183-.274-.32-.594-.412-1.097-.046-.411 0-.96.046-1.509l.823-6.125h-1.829zm14.263 1.921c-.731 0-1.371.274-1.965.73-.549.458-.96 1.144-1.143 1.966h5.074c.137-.823 0-1.508-.411-1.965-.32-.457-.869-.732-1.555-.732m-3.337 4.982c0 .549.046.96.274 1.372.183.32.412.594.732.868.32.183.686.412 1.143.457.411.137.868.137 1.417.137.457 0 .96 0 1.417-.045.457-.046.96-.183 1.417-.32l.046 2.331c-.549.137-1.097.274-1.692.32-.594.046-1.234.137-1.874.137-1.097 0-1.966-.137-2.743-.457a4.04 4.04 0 0 1-1.874-1.28c-.457-.549-.823-1.143-1.006-1.966a6.4 6.4 0 0 1-.137-2.514c.137-.868.32-1.691.732-2.469a6 6 0 0 1 1.417-1.965 6.6 6.6 0 0 1 2.011-1.28 7.2 7.2 0 0 1 2.514-.457c.869 0 1.6.137 2.24.411.595.274 1.143.686 1.463 1.143.412.457.595 1.097.732 1.829.137.731.137 1.508 0 2.377l-.137 1.28h-8.092zm17.921-4.661c-.137 0-.274-.046-.412-.046h-.457c-.411 0-.731.045-1.097.182-.32.138-.686.32-1.006.686-.32.32-.548.732-.822 1.234-.183.549-.32 1.143-.458 1.829l-.731 5.714h-3.109l1.463-11.794h3.109l-.183 1.554h.046c.731-1.234 1.828-1.828 3.291-1.828h.869zm80-21.35a1.77 1.77 0 0 1-2.103.824c-1.554-.458-3.017-.96-4.525-1.372a73 73 0 0 0-4.526-1.234c-3.017-.732-6.08-1.509-9.097-2.057a2.713 2.713 0 0 1-2.149-3.155q.069-.411.274-.822c1.463-2.743 3.109-5.212 4.8-7.589 1.692-2.377 3.52-4.709 5.486-6.903.686-.731 1.829-.823 2.56-.137.594.549.732 1.509.412 2.194-1.372 2.606-2.789 5.075-4.252 7.589l-2.148 3.703c-.046.137-.183.32-.275.457 2.012.457 3.977 1.097 5.943 1.783 1.554.548 3.109 1.143 4.572 1.828 1.462.686 3.017 1.417 4.434 2.24.823.64 1.143 1.737.594 2.652m-35.474-4.115c-.274.138-.548.183-.823.275-3.017.548-6.08 1.234-9.097 2.057-1.463.411-3.017.823-4.526 1.234q-2.193.618-4.525 1.372a1.81 1.81 0 0 1-2.24-1.235c-.183-.823.137-1.645.823-2.103a50 50 0 0 1 4.388-2.24c1.463-.685 3.017-1.28 4.572-1.828a68 68 0 0 1 5.942-1.783c-.045-.137-.182-.32-.274-.457l-2.148-3.703a172 172 0 0 1-4.252-7.589c-.457-.868-.137-1.965.732-2.468.731-.412 1.6-.183 2.148.411 1.966 2.195 3.794 4.526 5.486 6.903s3.291 4.846 4.8 7.589c.777 1.188.366 2.834-1.006 3.565m18.742 34.057c-.823.274-1.691 0-2.148-.731-1.006-1.646-1.966-3.337-2.972-5.074l-5.668-10.15c-.183-.41-.457-.73-.686-1.142-.183.412-.457.732-.686 1.143l-2.834 5.074-2.88 5.075c-1.006 1.645-1.966 3.337-2.971 4.982-.549.823-1.6 1.097-2.515.549-.731-.457-1.005-1.371-.731-2.194a91 91 0 0 1 2.24-5.44c.731-1.783 1.6-3.566 2.423-5.349.868-1.783 1.737-3.566 2.697-5.257.96-1.692 1.874-3.474 3.017-5.212v-.045a2.603 2.603 0 0 1 3.657-.732 2.8 2.8 0 0 1 .732.732 62 62 0 0 1 3.017 5.257c.868 1.783 1.828 3.474 2.651 5.257a92 92 0 0 1 2.423 5.349c.731 1.828 1.554 3.611 2.286 5.44.365 1.142-.092 2.148-1.052 2.468m-13.348-60.205c-.412-1.372-.595-2.743-.732-4.16-.137-1.372-.137-2.743-.137-4.16.046-2.743.274-5.532.96-8.275.274-1.005 1.234-1.645 2.24-1.371.686.183 1.234.731 1.371 1.371.686 2.743.823 5.532.869 8.275a65 65 0 0 1-.137 4.16c-.137 1.371-.32 2.743-.732 4.16-.274 1.005-1.371 1.554-2.377 1.234-.685-.137-1.097-.64-1.325-1.234m36.571 42.56c-.549.822-1.554 1.234-2.423.868-1.966-.685-3.84-1.417-5.806-2.057-1.965-.686-3.931-1.234-5.851-1.829-1.874-.548-3.794-1.005-5.669-1.417 1.28 2.332 2.56 4.663 3.932 7.04 1.234 2.103 2.377 4.297 3.52 6.537 1.097 2.24 2.24 4.435 3.108 6.766.458 1.097-.045 2.24-1.097 2.743-.96.412-1.966 0-2.514-.731l-7.909-12.252c-2.651-4.114-5.257-8.411-7.405-12.891-.732-1.509-.138-3.337 1.371-4.16.594-.274 1.28-.412 1.874-.274a71.3 71.3 0 0 1 12.618 3.337c2.011.731 4.068 1.554 5.988 2.514 1.966.96 3.84 1.92 5.714 3.063.823.411 1.143 1.691.549 2.743m-41.28-7.406c-2.24 4.571-4.8 8.868-7.406 12.983l-7.817 12.297c-.594.96-1.874 1.234-2.834.594-.869-.548-1.143-1.645-.823-2.514.96-2.332 2.011-4.571 3.109-6.812 1.142-2.194 2.285-4.388 3.52-6.537 1.28-2.377 2.651-4.708 3.84-7.04-1.875.458-3.795.96-5.669 1.509-1.966.548-3.931 1.143-5.851 1.828-1.966.595-3.932 1.372-5.806 2.058-1.097.411-2.24-.183-2.652-1.235-.32-.96.046-1.965.869-2.468 1.829-1.143 3.794-2.103 5.714-3.063 1.966-.869 3.977-1.783 5.989-2.514 4.068-1.509 8.274-2.606 12.617-3.429 1.6-.274 3.246.823 3.52 2.514 0 .595-.046 1.28-.32 1.829" fill="#020617"/><path fill-rule="evenodd" clip-rule="evenodd" d="M315.156 64.503c1.371.686 2.514 1.509 3.657 2.377 1.143.869 2.149 1.829 3.154 2.926 2.012 2.057 3.84 4.297 5.349 6.903.457.868.137 2.057-.732 2.514-.594.32-1.371.274-1.965-.137-2.286-1.646-4.389-3.566-6.355-5.44a45 45 0 0 1-2.88-3.017c-.96-1.097-1.828-2.194-2.56-3.429-.548-.868-.274-2.057.595-2.605.548-.366 1.188-.366 1.737-.092m-53.212 2.56a21 21 0 0 1-2.56 3.429c-.96 1.006-1.874 2.057-2.88 3.063-2.011 1.92-4.068 3.84-6.354 5.44a1.8 1.8 0 0 1-2.56-.457c-.411-.595-.411-1.372-.137-1.966 1.417-2.651 3.291-4.846 5.257-6.949 1.006-1.005 2.103-1.965 3.154-2.925 1.143-.869 2.286-1.692 3.657-2.377.96-.458 2.012-.046 2.515.822.32.732.228 1.418-.092 1.92m40.136-50.925c-1.737 3.748-3.703 7.45-5.715 10.97-2.011 3.612-4.114 7.178-6.354 10.652-.594.869-1.554 1.418-2.56 1.418-1.097 0-2.011-.595-2.56-1.418-2.148-3.565-4.251-7.085-6.263-10.742a208 208 0 0 1-2.971-5.44c-.96-1.829-1.966-3.703-2.834-5.532-.458-1.006-.046-2.24.96-2.788.868-.458 1.965-.138 2.514.594 1.28 1.646 2.423 3.337 3.657 5.074 1.234 1.692 2.377 3.429 3.52 5.12 1.371 2.057 2.697 4.16 4.069 6.263 1.371-2.103 2.697-4.251 4.068-6.263a156 156 0 0 1 7.223-10.103c.686-.868 1.966-1.097 2.88-.32.503.595.686 1.692.366 2.515" fill="#020617"/></svg>