<svg width="201" height="80" viewBox="0 0 201 80" fill="none" xmlns="http://www.w3.org/2000/svg"><g clip-path="url(#a)" fill="#020617" ><path d="M7.794.06H4.105v3.47h3.69zm5.592 0H9.697v3.47h3.69zm62.889 24.228h-3.69v3.47h3.69zm5.594 0h-3.69v3.47h3.69zM95.602 3.53h-3.72v3.439h3.72zM108.458.6h-3.688v3.44h3.688zm5.625 0h-3.688v3.44h3.688z"/><path d="M123.481 9.244v6.61c0 1.945-.714 2.931-2.111 2.931h-4.517c-1.28 0-2.083-.088-2.439-.238 1.281-1.467 1.934-3.112 1.934-4.906 0-.75-.12-1.525-.356-2.275-.922-2.903-3.392-4.728-6.575-4.728-3.125 0-5.622 1.825-6.575 4.728a7.5 7.5 0 0 0-.358 2.275c0 1.794.655 3.439 1.933 4.906-.328.15-1.13.238-2.439.238h-6.549a8.9 8.9 0 0 0 .505-3.022v-6.52h-4.195v6.67c0 1.914-.714 2.872-2.11 2.872h-7.815c.328-.927.475-1.913.475-3.022v-6.52h-4.194v6.67c0 1.914-.683 2.872-2.084 2.872H17.914c-2.022 0-3.036-1.075-3.036-3.05v-9.42c-5.294 0-7.944 0-7.944.029-3.928 0-6.159 2.872-6.159 7.328 0 4.127 2.292 7.238 5.861 7.238 2.053 0 3.481-.627 4.225-1.794q1.43 3.679 5 3.678h86.117c2.886 0 5.356-.359 7.439-1.106 2.083.747 4.553 1.106 7.439 1.106h5.411c1.725 0 3.095-.598 4.075-1.823.861-1.047 1.308-2.363 1.308-3.95V9.247h-4.169zM10.592 13.34c0 2.453-1.07 4.1-2.825 4.1-1.667 0-2.855-1.733-2.855-3.828 0-2.333 1.25-4.22 2.944-4.22h2.736zm100.278 3.44a11.4 11.4 0 0 1-1.459.897 9 9 0 0 1-1.427-.897c-1.161-.84-1.725-1.975-1.725-3.442 0-.928.266-1.733.772-2.391.625-.687 1.4-1.048 2.38-1.048 1.995 0 3.184 1.556 3.184 3.44 0 1.469-.564 2.605-1.725 3.44M127.378 3.53h-3.72v3.439h3.72zm-5.623 0h-3.689v3.439h3.689zM13.406 31.435H9.73v3.45h3.675zm-5.566 0H4.163v3.45H7.84zm32.281 24.081h-3.71v3.444h3.71zm-5.604 0h-3.675v3.444h3.675zM10.623 44.63c0 2.438-1.064 4.075-2.811 4.075-1.664 0-2.847-1.723-2.847-3.806 0-2.322 1.241-4.192 2.933-4.192h2.725zm25.614 2.5c0 1.93-.714 2.91-2.109 2.91H17.92c-2.017 0-3.025-1.066-3.025-3.027v-9.37c-5.28 0-7.917 0-7.917.031-3.919 0-6.144 2.856-6.144 7.286 0 4.1 2.286 7.195 5.844 7.195 2.048 0 3.473-.625 4.212-1.784.947 2.434 2.61 3.653 4.98 3.653h19.147c1.717 0 3.08-.594 4.064-1.808.856-1.042 1.303-2.353 1.303-3.928V40.56h-4.15v6.57zm15.713-6.006c-1.095-.386-2.934-.564-5.545-.564v3.475c5.275 0 7.53 1.845 7.53 6.011H43.173v3.983h14.914v-4.013c.003-4.492-2.1-7.464-6.136-8.892m40.53 4.523c-.683.62-1.333 1.097-1.925 1.366-.683-.802-1.308-1.397-1.838-1.783-.531-.386-1.248-.803-2.134-1.194a8 8 0 0 1 3.528-.828c1.217 0 2.458.325 3.736.98-.272.447-.744.92-1.367 1.459m-22.447 4.4h-2.403c-1.541 0-2.55-1.28-2.55-2.973 0-1.575.83-2.794 2.403-2.794 1.511 0 2.55 1.128 2.55 2.88zm53.4-2.678c0 1.783-.714 2.678-2.108 2.678h-2.634c.325-.895.5-1.906.5-3.003V40.56h-4.15v6.808c0 1.783-.708 2.678-2.102 2.678h-2.642c.325-.895.5-1.906.5-3.003V40.56h-4.181v6.63c0 .803-.055 1.306-.177 1.544-.325.864-.978 1.312-1.925 1.312H95.62c-.947 0-1.686-.24-2.225-.748 1.07-.65 2.195-1.66 3.411-3.058 1.1-1.28 1.84-2.353 2.164-3.15-2.816-2.175-5.87-3.272-9.164-3.272-2.755 0-5.513.803-8.208 2.408v3.42c1.156.208 2.372.71 3.614 1.483 1.039.655 1.808 1.28 2.255 1.905-1.1.681-2.402 1.012-3.858 1.012h-9.422v-2.709c0-3.953-2.78-6.808-6.578-6.808-3.95 0-6.736 2.708-6.736 6.722 0 3.953 2.847 6.778 6.736 6.778 1.389 0 2.22-.061 2.55-.178-.33 1.159-1.278 1.753-2.878 1.753h-.355v3.328h.447c4.033 0 6.283-1.636 6.761-4.903h9.542c1.216 0 2.433-.208 3.68-.595 1.156-.391 2.073-.894 2.787-1.488 1.333 1.397 2.872 2.083 4.597 2.083h26.744c1.481 0 2.817-.539 3.972-1.575 1.456-1.311 2.164-3.125 2.164-5.442V40.56h-4.18v6.809zM140.545.075v59.672h59.672V.075zm44.269 28.036c3.242 4.267 5.045 7.392 5.045 7.392a200 200 0 0 1-3.722 6.222s-1.998-3.344-5.562-8.036c-1.797-2.364-6.4-7.633-6.469-7.708.003.102-.003 23.02.011 25.18l-.011-.003v.028h-7.461c.014-2.16.008-25.1.011-25.205-.069.075-4.672 5.347-6.469 7.708-3.567 4.692-5.562 8.036-5.562 8.036a200 200 0 0 1-3.722-6.222s1.803-3.122 5.045-7.392c1.43-1.883 4.894-5.8 5.758-6.772-2.456.45-4.744 1.039-6.45 1.603a34 34 0 0 0-3.728 1.47c-.783.366-1.203.602-1.203.602.514-2.011 1.098-3.83 1.759-5.417 0 0 .391-.277 1.13-.71a26.6 26.6 0 0 1 3.484-1.69 36 36 0 0 1 5.986-1.777c-.067-.05-1.539-1.234-2.117-1.609-2.68-1.73-3.733-1.172-3.733-1.172 1.333-.961 2.68-1.739 4.014-2.294 0 0 .208-.123.611-.217.428-.103 1.111-.158 2.003.014 1 .192 3.875 1.539 3.922 1.567.003-.045.139-1.334.186-1.792.139-1.339.433-1.256.667-1.278h4.283c.236.02.528-.061.667 1.278.047.458.18 1.747.186 1.792.05-.028 2.922-1.373 3.922-1.567.892-.172 1.575-.117 2.003-.014.402.097.611.217.611.217 1.333.555 2.68 1.333 4.014 2.294 0 0-1.056-.558-3.734 1.172-.58.375-2.05 1.561-2.116 1.609a36 36 0 0 1 5.986 1.777 27 27 0 0 1 3.483 1.69c.739.433 1.131.71 1.131.71.661 1.586 1.244 3.406 1.758 5.417 0 0-.419-.236-1.203-.603a34 34 0 0 0-3.728-1.47c-1.705-.566-3.991-1.152-6.45-1.602.873.972 4.334 4.886 5.764 6.772m-2.611 37.423 4.884 5.367h13.13v-3.384h-7.869a2 2 0 0 1-1.734 1.006 2.01 2.01 0 1 1 0-4.022 2 2 0 0 1 1.759 1.055h7.844v-1.9h-59.672v1.878z"/><path d="m186.219 72.864-4.884-5.366h-40.791v2.919h8.436a2 2 0 0 1 1.758-1.055 2.01 2.01 0 1 1 0 4.022 2.01 2.01 0 0 1-1.733-1.006h-8.461v3.492h12.28l5.864-5.478h17.153a2 2 0 0 1 1.758-1.056 2.01 2.01 0 1 1 0 4.023 2.01 2.01 0 0 1-1.733-1.006H159.46l-5.863 5.478h-13.056v1.897h59.675v-6.867h-13.997zm10.005 5.536a2.01 2.01 0 0 1-1.733-1.005h-31.442a2 2 0 0 1-1.733 1.005 2.01 2.01 0 1 1 0-4.022c.764 0 1.419.43 1.758 1.056h31.389a2 2 0 0 1 1.759-1.056 2.01 2.01 0 0 1 .002 4.022"/></g><defs><clipPath id="a"><path fill="#fff" d="M.771 0h199.444v80H.771z"/></clipPath></defs></svg>