<?xml version="1.0" encoding="UTF-8"?>
<svg id="a" data-name="Layer 1" xmlns="http://www.w3.org/2000/svg" width="600" height="150" viewBox="0 0 600 150">
  <defs>
    <style>
      .f {
        fill: #fff;
      }
    </style>
  </defs>
  <g id="b" data-name="BALOGO">
    <path id="c" data-name="MARK" class="f" d="M560.9,110.73c1.11-.71,1.72-1.47,1.72-2.26,0-1.52-2.24-2.94-6.09-4.12,9.31-8.32,15.18-20.42,15.18-33.9,0-25.1-20.35-45.45-45.45-45.45s-45.45,20.35-45.45,45.45c0,13.47,5.87,25.57,15.18,33.9-3.84,1.18-6.09,2.6-6.09,4.12,0,.79.61,1.55,1.72,2.26-4.73,1.47-7.5,3.25-7.5,5.18,0,5.02,18.87,9.09,42.15,9.09s42.15-4.07,42.15-9.09c0-1.92-2.78-3.71-7.5-5.18Z"/>
    <g id="d" data-name="WORD">
      <path class="f" d="M308.55,29.26c1.58,1.19,3.55,1.89,5.68,1.89h0c2.13,0,4.09-.7,5.67-1.89.73-.55,1.35-1.24,1.89-1.97.55.74,1.16,1.42,1.89,1.97,1.58,1.19,3.55,1.89,5.68,1.89h0c2.13,0,4.09-.7,5.67-1.89,2.3-1.73,3.78-4.47,3.78-7.57v-8.2h-3.78v8.2c0,3.13-2.55,5.68-5.68,5.68s-5.67-2.55-5.68-5.67c0,0,0,0,0,0v-8.2h-3.78v8.2h0c0,3.13-2.55,5.68-5.68,5.68s-5.68-2.55-5.68-5.68v-8.2h-3.78v8.2c0,3.09,1.49,5.84,3.78,7.57Z"/>
      <rect class="f" x="415.8" y="136.5" width="13" height="13"/>
      <g>
        <rect class="f" x="79.29" y="13.5" width="26" height="13"/>
        <path class="f" d="M130.29,73.5h0c0-20.99-17.01-38-38-38h0c-20.99,0-38,17.01-38,38h0c0,20.99,17.01,38,38,38h0c20.99,0,38-17.01,38-38ZM92.29,98.5c-13.79,0-25-11.21-25-25s11.21-25,25-25,25,11.21,25,25-11.21,25-25,25Z"/>
      </g>
      <path class="f" d="M157.3,38v73.5c0,13.79-11.22,25-25,25h-13v13h13c10.5,0,20-4.25,26.87-11.13,6.88-6.87,11.13-16.37,11.13-26.87V38h-13Z"/>
      <path class="f" d="M441.8,38v41c0,10.77-8.73,19.5-19.5,19.5s-19.5-8.73-19.5-19.5V13.5h-13v65.5c0,10.77-8.73,19.5-19.5,19.5h-97v-25c0-11.42-5.03-21.66-13-28.62-6.68-5.84-15.42-9.38-25-9.38-10.5,0-20,4.25-26.87,11.13-6.88,6.88-11.13,16.38-11.13,26.87s4.25,19.99,11.13,26.87c6.87,6.88,16.37,11.13,26.87,11.13h25c0,13.79-11.22,25-25,25h-13v13h13c10.5,0,20-4.25,26.87-11.13,6.88-6.87,11.13-16.37,11.13-26.87h97c7.32,0,14.07-2.42,19.5-6.51,2.46-1.84,4.65-4.03,6.5-6.49,5.93,7.89,15.37,13,26,13,7.32,0,14.07-2.42,19.5-6.51,7.9-5.92,13-15.36,13-25.99v-41h-13ZM235.3,98.5c-13.79,0-25-11.21-25-25s11.21-25,25-25,25,11.22,25,25v25h-25Z"/>
    </g>
    <g id="e" data-name="R">
      <path class="f" d="M44.29,13.5c-5.51,0-10,4.48-10,10s4.49,10,10,10,10-4.49,10-10-4.49-10-10-10ZM44.29,31.61c-4.47,0-8.11-3.64-8.11-8.11s3.64-8.11,8.11-8.11,8.11,3.64,8.11,8.11-3.64,8.11-8.11,8.11Z"/>
      <path class="f" d="M46.24,23.93c.46-.23.82-.55,1.06-.96.25-.41.37-.9.37-1.44s-.13-1-.37-1.41c-.25-.41-.6-.74-1.06-.98-.45-.23-.98-.35-1.59-.35h-3.52v9.43h1.6v-3.94h.52l3.14,3.87.06.07h2.04l-3.29-3.99c.4-.05.73-.14,1.03-.29ZM42.74,22.87v-2.64h1.87c.47,0,.83.12,1.07.37.25.25.37.56.37.95,0,.41-.12.72-.36.96-.24.23-.61.35-1.09.35h-1.86Z"/>
    </g>
  </g>
</svg>