<svg xmlns="http://www.w3.org/2000/svg" width="64" height="64" fill="none" viewBox="0 0 64 64">
<style>
+     @media (prefers-color-scheme: dark) {
+     .a { fill: #fff }
+     }
+   </style>
<path class="a" fill="#06262D" d="M50.173 50.725c.598-.382.926-.793.926-1.224 0-.807-1.155-1.55-3.138-2.177 4.84-4.367 7.907-10.675 7.907-17.706 0-13.179-10.68-23.868-23.867-23.868-13.185 0-23.868 10.682-23.868 23.868 0 7.038 3.06 13.339 7.907 17.706-1.975.626-3.13 1.377-3.13 2.177 0 .424.334.835.926 1.224-2.58.78-4.11 1.732-4.11 2.754 0 2.636 9.973 4.771 22.276 4.771s22.275-2.135 22.275-4.77c0-1.03-1.531-1.976-4.112-2.755z"/>
</svg>