
  <svg
    width="64"
    height="64"
    viewBox="0 0 64 64"
    fill="none"
    xmlns="http://www.w3.org/2000/svg"
  >
    <path fill="#1A4BEA" d="M0 0h64v64H0z" />
    <path
      d="M42.44 41.36c6.113-6.5 8.09-15.538 7.792-25.719-.038-1.28.01-2.002-.741-2.143-.75-.14-16.766-.14-17.823 0q-1.057.14-.917 2.407c.116 5.444-.774 8.88-3.335 11.348-2.57 2.477-5.901 3.333-11.387 3.54-2.402.09-2.273 1.083-2.273 2.35v15.11c0 1.26-.364 2.352 2.238 2.35l.143.002c10.792-.116 20.18-2.733 26.304-9.245"
      fill="#fff"
    />
  </svg>

